<?xml version="1.0" encoding="utf-8" ?>
<svg xmlns="http://www.w3.org/2000/svg" xmlns:xlink="http://www.w3.org/1999/xlink" width="512" height="512" viewBox="70 60 380 380">
  <path fill="#E86F75" d="M243.058 75.4978L333.299 75.4872C338.936 75.4812 344.98 75.27 350.559 75.8018C398.573 80.3777 433.838 120.131 433.893 167.787L433.895 323.773C433.898 335.487 434.604 347.192 431.913 358.608C425.631 385.267 409.974 406.535 386.09 419.838C363.411 432.47 344.76 430.765 319.995 430.767L269.375 430.761L179.514 430.769C158.1 430.768 144.269 430.036 125.147 419.037C93.215 400.672 78.2468 371.292 78.0191 335.257L78.0196 182.381C78.0198 171.586 77.4422 159.795 79.8297 149.276C88.8314 109.618 121.873 79.8184 162.657 75.9976C172.017 75.1206 184.098 75.4925 193.825 75.4915L243.058 75.4978ZM345.019 409.231C377.455 406.72 405.304 385.602 410.816 352.292C412.357 342.975 411.742 330.466 411.74 320.756L411.741 173.799C411.744 169.385 412 164.153 411.565 159.809C408.526 129.475 384.343 104.076 354.43 98.7892C346.172 97.3299 336.843 97.7429 328.44 97.7427L167.672 97.751C134.86 101.006 107.034 121.774 101.308 155.704C99.5276 166.252 100.238 180.383 100.24 191.33L100.236 331.265C100.228 368.467 117.706 401.362 157.652 407.991C167.277 409.588 176.979 409.238 186.694 409.235L345.019 409.231Z"/>
  <path fill="#ffffff" stroke="#E86F75" stroke-width="28" stroke-linejoin="round" d="M345.019 409.231C377.455 406.72 405.304 385.602 410.816 352.292C412.357 342.975 411.742 330.466 411.74 320.756L411.741 173.799C411.744 169.385 412 164.153 411.565 159.809C408.526 129.475 384.343 104.076 354.43 98.7892C346.172 97.3299 336.843 97.7429 328.44 97.7427L167.672 97.751C134.86 101.006 107.034 121.774 101.308 155.704C99.5276 166.252 100.238 180.383 100.24 191.33L100.236 331.265C100.228 368.467 117.706 401.362 157.652 407.991C167.277 409.588 176.979 409.238 186.694 409.235L345.019 409.231Z"/>
  <path fill="#333" d="M193.962 165.26C202.799 164.854 212.647 165.252 221.61 165.254L304.339 165.247C331.792 165.238 341.302 170.635 341.26 199.455L341.244 215.863C335.691 215.658 326.101 215.663 320.615 215.863C320.671 184.332 327.18 186.497 298.687 186.493L266.35 186.5L266.35 319.62L285.031 319.62C286.712 319.714 288.716 319.641 290.427 319.62L290.427 340.872L221.625 340.872C221.603 333.822 221.777 326.64 221.625 319.62C229.468 319.795 237.902 319.629 245.791 319.62L245.791 186.5L211.649 186.486C205.933 186.485 200.143 186.362 194.455 186.664C189.088 186.948 190.758 194.459 190.761 198.564L190.784 215.863L170.661 215.863C171.078 195.24 164.929 169.237 193.962 165.26Z"/>
</svg>
